<svg xmlns="http://www.w3.org/2000/svg" xmlns:xlink="http://www.w3.org/1999/xlink" id="Layer_1" x="0px" y="0px" viewBox="0 0 122.88 106.72" style="enable-background:new 0 0 122.88 106.72" xml:space="preserve"><g><path d="M50.33,43.19c0.39-0.52,1.13-0.62,1.65-0.22c0.52,0.39,0.62,1.13,0.22,1.65c-1.12,1.46-1.64,2.89-1.67,4.28 c-0.03,1.41,0.43,2.84,1.25,4.28c0.32,0.57,0.12,1.28-0.44,1.6c-0.57,0.32-1.28,0.12-1.6-0.44c-1.02-1.8-1.59-3.62-1.55-5.49 C48.23,46.96,48.89,45.07,50.33,43.19L50.33,43.19L50.33,43.19z M7.66,41.69l3.98,4.95L0,50.42l18.42,0.85l-3.35-4.78l11.88-3.4 L7.66,41.69L7.66,41.69L7.66,41.69z M21.15,19.11l0.99,6.59L9.49,22.56l16.17,11.15l-0.33-6.21l12.59,3.51L21.15,19.11L21.15,19.11 L21.15,19.11z M15.99,60.47l6.41,2.35l-9.06,9.84l17.99-9.06l-5.75-2.76l9.52-9.37L15.99,60.47L15.99,60.47L15.99,60.47z M95.58,0.09c0.93-0.3,1.93,0.21,2.23,1.13c0.3,0.93-0.21,1.93-1.13,2.23L95.6,3.8C79.58,9,64.93,13.76,55.99,28.46 c-0.49,0.8-1.02,1.52-1.6,2.16c-0.57,0.64-1.21,1.23-1.91,1.78c-1.29,1.02-2.48,1.68-3.62,2.31c-1.82,1.01-3.5,1.94-4.97,4.29 c-1.04,1.67-1.58,3.63-1.64,5.86c-0.05,2.35,0.43,5.02,1.43,7.99c1.84,5.45,7.4,12.93,14.21,20.63 c10.28,11.64,23.33,23.68,30.8,30.13c0.74,0.64,0.82,1.75,0.18,2.49c-0.64,0.74-1.75,0.82-2.49,0.18 c-7.54-6.51-20.71-18.67-31.13-30.46c-7.08-8.01-12.9-15.9-14.91-21.85c-1.13-3.35-1.67-6.41-1.61-9.18 c0.07-2.89,0.78-5.44,2.16-7.66c1.95-3.13,4.02-4.27,6.26-5.51c1.03-0.57,2.1-1.16,3.15-1.99c0.51-0.41,1.01-0.86,1.47-1.38 c0.46-0.51,0.87-1.05,1.22-1.62C62.6,10.8,77.85,5.85,94.51,0.43L95.58,0.09L95.58,0.09L95.58,0.09z M120.12,35.69 c0.81-0.55,1.91-0.34,2.46,0.46c0.55,0.81,0.34,1.91-0.46,2.46c-3.83,2.62-7.74,4.82-11.7,6.66c-3.95,1.83-7.95,3.31-11.99,4.51 c-6.45,1.91-10.28,1.75-15.7,1.54c-0.92-0.04-1.88-0.08-2.79-0.1c-0.58-0.02-1.13,0.02-1.61,0.1c-0.43,0.07-0.76,0.17-0.98,0.28 c-0.02,0.01-0.05,0.03-0.11,0.06c-0.12,0.07-0.17,0.11-0.17,0.13c-0.02,0.13,0.05,0.34,0.18,0.6c0.03,0.05,0.07,0.12,0.13,0.22 c0.44,0.72,1.57,1.57,2.84,2.52c1.73,1.3,3.67,2.76,5.1,4.76c2.5,3.5,6.43,11.75,10.41,20.08c3.84,8.05,7.72,16.19,10.2,19.87 c0.55,0.81,0.33,1.91-0.48,2.46c-0.81,0.55-1.91,0.33-2.46-0.48c-2.64-3.91-6.57-12.16-10.47-20.33 c-3.92-8.21-7.79-16.35-10.09-19.56c-1.11-1.56-2.82-2.84-4.34-3.98c-1.56-1.17-2.95-2.22-3.74-3.51 c-0.08-0.13-0.16-0.28-0.25-0.46c-0.46-0.89-0.67-1.83-0.53-2.75c0.16-1.03,0.72-1.94,1.82-2.61c0.09-0.05,0.2-0.12,0.34-0.19 c0.55-0.28,1.24-0.49,2.02-0.62c0.68-0.11,1.46-0.16,2.27-0.14c1.08,0.03,1.97,0.07,2.83,0.1c5.08,0.2,8.66,0.35,14.56-1.4 c3.86-1.14,7.71-2.56,11.5-4.33C112.72,40.31,116.45,38.2,120.12,35.69L120.12,35.69L120.12,35.69z M65.21,35.88 c-0.51,0.83-1.6,1.1-2.43,0.59c-0.83-0.51-1.1-1.6-0.59-2.43c3.85-6.27,8.98-11.31,15.39-15.12c6.37-3.78,13.99-6.33,22.87-7.67 c0.97-0.14,1.86,0.53,2.01,1.49c0.14,0.97-0.53,1.86-1.49,2.01c-8.42,1.26-15.61,3.67-21.58,7.21 C73.47,25.47,68.75,30.11,65.21,35.88L65.21,35.88L65.21,35.88z"></path></g></svg>