<svg xmlns="http://www.w3.org/2000/svg" xmlns:xlink="http://www.w3.org/1999/xlink" id="Layer_1" x="0px" y="0px" viewBox="0 0 113.9 122.88" style="enable-background:new 0 0 113.9 122.88" xml:space="preserve"><g><path d="M44.27,86.72c2.57-0.31,4.61-0.99,6.24-1.96c1.57-0.94,2.77-2.16,3.69-3.59c1.69-2.62,2.09-3.68,2.32-4.31 c0.23-0.6,0.36-0.97,0.82-1.49l0.04-0.04c0.5-0.57,1.26-1.1,3.09-2.41c0.72-0.51,1.6-1.14,2.36-1.69c1.81-1.3,3.29-2.78,4.41-4.46 c1.1-1.65,1.86-3.52,2.24-5.63c0.13-0.7,0.15-1.33,0.17-1.81c0.04-0.89,0.06-1.52,0.52-2.17c1.11-1.58,2.29-1.35,4.96,0.53 c1.66,1.17,3.01,2.57,4.05,4.19c1.03,1.62,1.75,3.47,2.15,5.53c0.51,2.64,0.52,4.74,0.53,6.83c0.01,2.82,0.02,5.61,1.49,9.66 c0.59,1.64,1.33,3.28,2.22,4.93c0.87,1.62,1.87,3.23,3.01,4.83l16.32,16.32c0.75,0.75,0.74,1.97-0.01,2.72l-9.61,9.61 c-0.76,0.76-1.98,0.76-2.72,0.01l-15.89-15.89c-6.57-4.92-13.27-5.65-19.13-6.29c-6.84-0.75-12.67-1.38-16.64-7.57 c-1.9-2.96-2.2-4.16-0.47-5.28c0.66-0.43,1.31-0.45,2.23-0.47C43.11,86.81,43.69,86.79,44.27,86.72L44.27,86.72L44.27,86.72z M91.53,16.08l0.73,8.14l14.16-6.89l-16.3,17.23l-1.17-7.42L74.91,34.6L91.53,16.08L91.53,16.08L91.53,16.08z M58.88,7.22 l4.96,6.99L72.75,0l-5.02,24.76l-5.24-6.05L53.97,33.2L58.88,7.22L58.88,7.22L58.88,7.22z M100.57,40.9l-3.84,7.9l17.17,1.03 L89.15,57.5l2.86-7.69l-17.18-0.18L100.57,40.9L100.57,40.9L100.57,40.9z M11.33,20.17l-6.65,6.65L21.24,43.4 c0.02,0.02,0.04,0.04,0.06,0.07c2.39,2.26,3.94,5.23,4.87,8.73c0.9,3.36,1.22,7.21,1.18,11.38c0.61,4.46,2.27,8.85,4.57,11.97 c1.26,1.71,2.68,3,4.17,3.65c1.33,0.58,2.78,0.62,4.27-0.04c1.51-0.68,3.1-2.06,4.72-4.33c0.59-0.83,1.07-1.88,1.57-2.98 c0.3-0.65,0.6-1.32,0.94-1.98c3.03-5.92,4.79-6.55,7.28-7.45c1.11-0.4,2.43-0.88,4.3-2.39c2.41-1.95,3.77-3.95,3.99-6.02 c0.22-2.08-0.68-4.4-2.79-7c-0.47-0.59-1.08-1.07-1.79-1.48c-0.77-0.45-1.65-0.8-2.61-1.09c-3.37-1.02-6.28-1.13-9.09-1.24 c-4.99-0.19-9.71-0.38-16.28-4.82c-5.1-3.46-10.89-9.49-16-14.82C13.51,22.42,12.46,21.32,11.33,20.17L11.33,20.17L11.33,20.17z M0.57,25.46l9.4-9.4c0.76-0.76,1.98-0.76,2.74,0c1.22,1.22,2.91,2.98,4.67,4.82c4.97,5.18,10.6,11.05,15.39,14.3 c5.67,3.84,9.84,4,14.26,4.17c3.06,0.12,6.23,0.24,10.06,1.4c1.25,0.38,2.4,0.84,3.43,1.43c1.09,0.63,2.05,1.41,2.85,2.39 c2.8,3.45,3.97,6.72,3.64,9.86c-0.33,3.14-2.17,5.99-5.39,8.6c-2.37,1.92-4.02,2.52-5.42,3.02c-1.65,0.6-2.82,1.02-5.16,5.59 c-0.32,0.62-0.6,1.23-0.87,1.82c-0.58,1.28-1.14,2.5-1.95,3.63c-2.04,2.85-4.16,4.65-6.27,5.6c-2.56,1.15-5.06,1.06-7.38,0.06 c-2.16-0.93-4.11-2.66-5.75-4.89c-2.69-3.65-4.63-8.76-5.3-13.88l0,0c-0.01-0.09-0.02-0.19-0.02-0.28 c0.05-3.89-0.24-7.45-1.05-10.49c-0.75-2.82-1.96-5.18-3.78-6.91c-0.06-0.04-0.11-0.09-0.16-0.15L0.57,28.19 C-0.19,27.44-0.19,26.21,0.57,25.46L0.57,25.46L0.57,25.46z M52.46,88.06c-2.07,1.23-4.61,2.09-7.76,2.47 c-0.18,0.02-0.34,0.04-0.5,0.05c3.01,4.56,7.97,5.1,13.78,5.74c6.35,0.69,13.61,1.49,21.01,7.05c0.12,0.07,0.23,0.16,0.33,0.26 l14.6,14.6l6.87-6.87L85.75,96.3l0,0c-0.07-0.07-0.14-0.15-0.2-0.23c-1.29-1.81-2.42-3.6-3.38-5.39c-0.97-1.8-1.78-3.61-2.44-5.43 c-1.69-4.67-1.7-7.8-1.71-10.95c-0.01-1.91-0.02-3.84-0.46-6.12c-0.31-1.57-0.85-2.97-1.63-4.19c-0.68-1.06-1.53-2-2.58-2.8 c-0.03,0.19-0.06,0.4-0.09,0.61c-0.47,2.64-1.43,4.99-2.84,7.1c-1.39,2.08-3.19,3.89-5.36,5.45c-1.14,0.82-1.82,1.3-2.37,1.7 c-1.57,1.12-2.21,1.57-2.44,1.82l-0.01,0.01c-0.02,0.02-0.06,0.13-0.13,0.32c-0.29,0.78-0.79,2.12-2.69,5.06 C56.19,85.15,54.58,86.8,52.46,88.06L52.46,88.06L52.46,88.06z M73.25,59.44l0.04,0c0.02-0.01,0.04-0.02,0.06-0.03 c0.15-0.31,0.22-0.44-0.05-0.06C73.27,59.39,73.26,59.42,73.25,59.44L73.25,59.44z M73.25,59.44c-0.01,0.02,0.01,0.02,0.04,0 L73.25,59.44L73.25,59.44z M42.49,90.52c-0.42,0.27-0.25,0.21,0.11,0.08C42.57,90.52,42.66,90.41,42.49,90.52L42.49,90.52z"></path></g></svg>