<svg xmlns="http://www.w3.org/2000/svg" width="56px" height="56px" fill="#e01f1f" viewBox="0 0 24 24"><path d="M19.435,4.065H4.565c-1.38,0-2.5,1.12-2.5,2.5v10.87c0,1.38,1.12,2.5,2.5,2.5h14.87
                c1.38,0,2.5-1.12,2.5-2.5V6.565C21.935,5.185,20.815,4.065,19.435,4.065z M4.565,5.065h14.87c0.79,0,1.44,0.61,1.49,1.39
                c-2.47,1.32-4.95,2.63-7.43,3.95c-0.34,0.18-0.69,0.42-1.06,0.53c-0.64,0.2-1.14-0.11-1.67-0.39c-1.42-0.75-2.84-1.51-4.25-2.26
                c-1.14-0.6-2.3-1.21-3.44-1.82C3.125,5.685,3.765,5.065,4.565,5.065z M20.935,17.435c0,0.83-0.67,1.5-1.5,1.5H4.565
                c-0.83,0-1.5-0.67-1.5-1.5v-9.84c2.36,1.24,4.71,2.5,7.07,3.75c0.43,0.22,0.87,0.5,1.35,0.6c0.72,0.15,1.38-0.07,2-0.41
                c1.45-0.76,2.89-1.53,4.34-2.29c1.04-0.56,2.07-1.1,3.11-1.65V17.435z"/></svg>