<svg xmlns="http://www.w3.org/2000/svg" width="56px" height="56px" fill="#e01f1f" viewBox="0 0 24 24"><path d="M14.436,20.938c-6.268,0-11.367-5.105-11.367-11.379c0-1.996,0.521-3.953,1.504-5.659
                c0.262-0.454,0.714-0.753,1.24-0.822c0.541-0.073,1.07,0.108,1.454,0.493l3.14,3.139c0.324,0.324,0.503,0.755,0.503,1.214
                s-0.179,0.89-0.503,1.214l-0.296,0.296c-0.754,0.755-0.754,1.981,0,2.735l1.721,1.721c0.73,0.73,2.005,0.73,2.735,0l0.29-0.29
                c0.671-0.67,1.76-0.669,2.429,0l3.139,3.139c0.384,0.384,0.563,0.915,0.492,1.455c-0.069,0.526-0.369,0.978-0.822,1.239
                C18.388,20.418,16.431,20.938,14.436,20.938z M6.042,4.063c-0.033,0-0.066,0.002-0.099,0.006C5.728,4.097,5.544,4.218,5.44,4.4
                C4.542,5.954,4.069,7.738,4.069,9.559c0,5.723,4.65,10.379,10.367,10.379c1.82,0,3.604-0.474,5.158-1.371
                c0.183-0.105,0.303-0.289,0.331-0.503c0.03-0.23-0.046-0.455-0.208-0.618l-3.139-3.139c-0.279-0.28-0.735-0.278-1.015,0l-0.29,0.29
                c-1.108,1.109-3.041,1.107-4.149,0l-1.721-1.721c-1.144-1.144-1.144-3.005,0-4.149l0.296-0.296c0.136-0.136,0.21-0.316,0.21-0.507
                s-0.074-0.371-0.21-0.507l-3.14-3.14C6.421,4.138,6.236,4.063,6.042,4.063z"/></svg>